  0
SECTION
  2
HEADER
  9
$ACADVER
  1
AC1006
  9
$EXTMIN
 10
0.000000
 20
0.000000
 30
0.000000
  9
$EXTMAX
 10
549.000000
 20
526.000000
 30
0.000000
  0
ENDSEC
  0
SECTION
  2
ENTITIES
  0
POLYLINE
  8
0
 66
1
 70
1
  0
VERTEX
  8
0
 10
95.000000
 20
525.000000
 42
-0.031748
  0
VERTEX
  8
0
 10
93.748212
 20
524.685081
 42
-0.012499
  0
VERTEX
  8
0
 10
91.991882
 20
524.405267
 42
-0.012313
  0
VERTEX
  8
0
 10
90.072886
 20
524.196491
 42
-0.015047
  0
VERTEX
  8
0
 10
88.270236
 20
524.099680
 42
0.024150
  0
VERTEX
  8
0
 10
86.376715
 20
523.963391
 42
0.015040
  0
VERTEX
  8
0
 10
84.175459
 20
523.630203
 42
0.015084
  0
VERTEX
  8
0
 10
82.019453
 20
523.169613
 42
0.026311
  0
VERTEX
  8
0
 10
80.270236
 20
522.641437
 42
-0.002783
  0
VERTEX
  8
0
 10
78.439632
 20
521.993289
 42
-0.001199
  0
VERTEX
  8
0
 10
75.991882
 20
521.148508
 42
-0.001186
  0
VERTEX
  8
0
 10
73.381608
 20
520.261546
 42
-0.001569
  0
VERTEX
  8
0
 10
71.000000
 20
519.466895
 42
0.026420
  0
VERTEX
  8
0
 10
65.520195
 20
517.330529
 42
0.011592
  0
VERTEX
  8
0
 10
58.495256
 20
513.956591
 42
0.011380
  0
VERTEX
  8
0
 10
51.749051
 20
510.326195
 42
0.032845
  0
VERTEX
  8
0
 10
47.316722
 20
507.408836
 42
-0.009354
  0
VERTEX
  8
0
 10
46.048772
 20
506.486145
 42
-0.012836
  0
VERTEX
  8
0
 10
44.872546
 20
505.707595
 42
-0.009570
  0
VERTEX
  8
0
 10
43.872327
 20
505.108186
 42
-0.130928
  0
VERTEX
  8
0
 10
43.466259
 20
505.000000
 42
0.203336
  0
VERTEX
  8
0
 10
41.738586
 20
504.267103
 42
0.002708
  0
VERTEX
  8
0
 10
33.541609
 20
495.694039
 42
0.008110
  0
VERTEX
  8
0
 10
25.928200
 20
487.378349
 42
0.025925
  0
VERTEX
  8
0
 10
21.239584
 20
481.500000
 42
0.038595
  0
VERTEX
  8
0
 10
12.215339
 20
466.590701
 42
0.037984
  0
VERTEX
  8
0
 10
5.534479
 20
450.393311
 42
0.038271
  0
VERTEX
  8
0
 10
1.421273
 20
433.495179
 42
0.040596
  0
VERTEX
  8
0
 10
0.039667
 20
416.500000
 42
0.035371
  0
VERTEX
  8
0
 10
1.191828
 20
400.240720
 42
0.041415
  0
VERTEX
  8
0
 10
4.629624
 20
385.167527
 42
0.042711
  0
VERTEX
  8
0
 10
10.382381
 20
371.266994
 42
0.042316
  0
VERTEX
  8
0
 10
18.428322
 20
358.500000
 42
0.010189
  0
VERTEX
  8
0
 10
23.003668
 20
352.692739
 42
0.024627
  0
VERTEX
  8
0
 10
26.675350
 20
348.646622
 42
0.024722
  0
VERTEX
  8
0
 10
30.718604
 20
344.990222
 42
0.010341
  0
VERTEX
  8
0
 10
36.500000
 20
340.456000
 42
0.035558
  0
VERTEX
  8
0
 10
48.231472
 20
332.881567
 42
0.039921
  0
VERTEX
  8
0
 10
60.483733
 20
327.374373
 42
0.037284
  0
VERTEX
  8
0
 10
74.160668
 20
323.617263
 42
0.025065
  0
VERTEX
  8
0
 10
90.204258
 20
321.300094
 42
0.044554
  0
VERTEX
  8
0
 10
95.761491
 20
321.276372
 42
0.008960
  0
VERTEX
  8
0
 10
105.610376
 20
322.291419
 42
0.009112
  0
VERTEX
  8
0
 10
115.428720
 20
323.663458
 42
0.041992
  0
VERTEX
  8
0
 10
121.000000
 20
325.032760
 42
-0.017070
  0
VERTEX
  8
0
 10
124.794422
 20
326.168364
 42
-0.044053
  0
VERTEX
  8
0
 10
127.610748
 20
326.647780
 42
-0.076649
  0
VERTEX
  8
0
 10
129.395452
 20
326.518273
 42
-0.349624
  0
VERTEX
  8
0
 10
130.000000
 20
325.759386
 42
-0.120911
  0
VERTEX
  8
0
 10
129.782998
 20
324.875144
 42
-0.007112
  0
VERTEX
  8
0
 10
128.457812
 20
322.423437
 42
-0.010410
  0
VERTEX
  8
0
 10
126.761148
 20
319.531512
 42
-0.007461
  0
VERTEX
  8
0
 10
124.750000
 20
316.368255
 42
0.018668
  0
VERTEX
  8
0
 10
119.590716
 20
307.837019
 42
0.014263
  0
VERTEX
  8
0
 10
114.571951
 20
298.150818
 42
0.014407
  0
VERTEX
  8
0
 10
110.188514
 20
288.353899
 42
0.021232
  0
VERTEX
  8
0
 10
106.962142
 20
279.500000
 42
0.002575
  0
VERTEX
  8
0
 10
104.382461
 20
271.214641
 42
0.014065
  0
VERTEX
  8
0
 10
103.137253
 20
266.690092
 42
0.010350
  0
VERTEX
  8
0
 10
101.999889
 20
261.597613
 42
0.000968
  0
VERTEX
  8
0
 10
99.484235
 20
249.000000
 42
0.039608
  0
VERTEX
  8
0
 10
98.244864
 20
238.362622
 42
0.009583
  0
VERTEX
  8
0
 10
97.932028
 20
220.637906
 42
0.009116
  0
VERTEX
  8
0
 10
98.280537
 20
202.992871
 42
0.047512
  0
VERTEX
  8
0
 10
99.568618
 20
193.360360
 42
-0.010115
  0
VERTEX
  8
0
 10
100.335420
 20
189.720960
 42
-0.038341
  0
VERTEX
  8
0
 10
100.592334
 20
187.411378
 42
-0.059797
  0
VERTEX
  8
0
 10
100.443544
 20
185.671574
 42
-0.062948
  0
VERTEX
  8
0
 10
99.886637
 20
184.048307
 42
0.015599
  0
VERTEX
  8
0
 10
98.197537
 20
180.316473
 42
0.016701
  0
VERTEX
  8
0
 10
96.785397
 20
176.569739
 42
0.015783
  0
VERTEX
  8
0
 10
95.562622
 20
172.552479
 42
0.011362
  0
VERTEX
  8
0
 10
94.442936
 20
168.000374
 42
0.014525
  0
VERTEX
  8
0
 10
93.429950
 20
162.716414
 42
0.036024
  0
VERTEX
  8
0
 10
93.082488
 20
158.793656
 42
0.036067
  0
VERTEX
  8
0
 10
93.301873
 20
154.864338
 42
0.014590
  0
VERTEX
  8
0
 10
94.141829
 20
149.560195
 42
0.033564
  0
VERTEX
  8
0
 10
96.861500
 20
139.055333
 42
0.036354
  0
VERTEX
  8
0
 10
100.908577
 20
129.296264
 42
0.033370
  0
VERTEX
  8
0
 10
106.651538
 20
119.550657
 42
0.021570
  0
VERTEX
  8
0
 10
114.500000
 20
109.060986
 42
0.038835
  0
VERTEX
  8
0
 10
123.766490
 20
99.372107
 42
0.019034
  0
VERTEX
  8
0
 10
136.924148
 20
88.468681
 42
0.019041
  0
VERTEX
  8
0
 10
150.954384
 20
78.540177
 42
0.036684
  0
VERTEX
  8
0
 10
163.000000
 20
71.890197
 42
0.004902
  0
VERTEX
  8
0
 10
170.606623
 20
68.481533
 42
0.016443
  0
VERTEX
  8
0
 10
175.680235
 20
66.463299
 42
0.024834
  0
VERTEX
  8
0
 10
179.348484
 20
65.344398
 42
0.061678
  0
VERTEX
  8
0
 10
182.129748
 20
65.000000
 42
-0.098572
  0
VERTEX
  8
0
 10
183.885619
 20
64.650443
 42
-0.052921
  0
VERTEX
  8
0
 10
185.833156
 20
63.589625
 42
-0.033549
  0
VERTEX
  8
0
 10
188.283907
 20
61.641696
 42
-0.009975
  0
VERTEX
  8
0
 10
191.757624
 20
58.349321
 42
0.012354
  0
VERTEX
  8
0
 10
197.306540
 20
53.139974
 42
0.015721
  0
VERTEX
  8
0
 10
202.687543
 20
48.628744
 42
0.017312
  0
VERTEX
  8
0
 10
207.791910
 20
44.894247
 42
0.026173
  0
VERTEX
  8
0
 10
212.500000
 20
42.042018
 42
-0.001047
  0
VERTEX
  8
0
 10
214.141407
 20
41.157120
 42
-0.001073
  0
VERTEX
  8
0
 10
215.765625
 20
40.272576
 42
-0.001039
  0
VERTEX
  8
0
 10
217.171975
 20
39.498962
 42
-0.004521
  0
VERTEX
  8
0
 10
218.000000
 20
39.031410
 42
0.024502
  0
VERTEX
  8
0
 10
219.435214
 20
38.294993
 42
0.004490
  0
VERTEX
  8
0
 10
222.162817
 20
37.089648
 42
0.004493
  0
VERTEX
  8
0
 10
225.570688
 20
35.656304
 42
0.002993
  0
VERTEX
  8
0
 10
229.500000
 20
34.072450
 42
0.031530
  0
VERTEX
  8
0
 10
238.183458
 20
31.251209
 42
0.025858
  0
VERTEX
  8
0
 10
247.747001
 20
29.318591
 42
0.024997
  0
VERTEX
  8
0
 10
257.815194
 20
28.331713
 42
0.024412
  0
VERTEX
  8
0
 10
268.011937
 20
28.342849
 42
0.014738
  0
VERTEX
  8
0
 10
281.016947
 20
29.377387
 42
0.031351
  0
VERTEX
  8
0
 10
290.957459
 20
31.099489
 42
0.034157
  0
VERTEX
  8
0
 10
300.057562
 20
33.939507
 42
0.021146
  0
VERTEX
  8
0
 10
310.319848
 20
38.437465
 42
0.009763
  0
VERTEX
  8
0
 10
316.259072
 20
41.491037
 42
0.025074
  0
VERTEX
  8
0
 10
320.389052
 20
43.992321
 42
0.022097
  0
VERTEX
  8
0
 10
324.534120
 20
47.071305
 42
0.006186
  0
VERTEX
  8
0
 10
330.733315
 20
52.244666
 42
-0.020433
  0
VERTEX
  8
0
 10
332.606543
 20
53.719461
 42
-0.019723
  0
VERTEX
  8
0
 10
334.615621
 20
55.054920
 42
-0.020090
  0
VERTEX
  8
0
 10
336.475675
 20
56.088124
 42
-0.065266
  0
VERTEX
  8
0
 10
337.804656
 20
56.553022
 42
0.014074
  0
VERTEX
  8
0
 10
342.086482
 20
57.575065
 42
0.010090
  0
VERTEX
  8
0
 10
346.812216
 20
58.947459
 42
0.006134
  0
VERTEX
  8
0
 10
351.160905
 20
60.364866
 42
0.104112
  0
VERTEX
  8
0
 10
352.450000
 20
61.128548
 42
-0.057707
  0
VERTEX
  8
0
 10
352.910715
 20
61.462360
 42
-0.036645
  0
VERTEX
  8
0
 10
353.511360
 20
61.744011
 42
-0.036513
  0
VERTEX
  8
0
 10
354.150698
 20
61.936345
 42
-0.054862
  0
VERTEX
  8
0
 10
354.729097
 20
62.000000
 42
0.110270
  0
VERTEX
  8
0
 10
356.693009
 20
62.438451
 42
0.001612
  0
VERTEX
  8
0
 10
367.509884
 20
67.564256
 42
0.003843
  0
VERTEX
  8
0
 10
377.603861
 20
72.483064
 42
0.032061
  0
VERTEX
  8
0
 10
382.000000
 20
75.030712
 42
-0.001665
  0
VERTEX
  8
0
 10
383.345941
 20
75.924108
 42
-0.000429
  0
VERTEX
  8
0
 10
385.523610
 20
77.356478
 42
-0.000437
  0
VERTEX
  8
0
 10
388.010045
 20
78.985776
 42
-0.000445
  0
VERTEX
  8
0
 10
390.484630
 20
80.601079
 42
0.006381
  0
VERTEX
  8
0
 10
392.959592
 20
82.258858
 42
0.005972
  0
VERTEX
  8
0
 10
395.447164
 20
84.015629
 42
0.005957
  0
VERTEX
  8
0
 10
397.617754
 20
85.627502
 42
0.020286
  0
VERTEX
  8
0
 10
398.974412
 20
86.750000
 42
-0.015229
  0
VERTEX
  8
0
 10
399.994538
 20
87.611574
 42
-0.019406
  0
VERTEX
  8
0
 10
400.987971
 20
88.339063
 42
-0.017674
  0
VERTEX
  8
0
 10
401.849015
 20
88.876407
 42
-0.131394
  0
VERTEX
  8
0
 10
402.311210
 20
89.000000
 42
0.101754
  0
VERTEX
  8
0
 10
402.718196
 20
89.083691
 42
0.031654
  0
VERTEX
  8
0
 10
403.277813
 20
89.367188
 42
0.030177
  0
VERTEX
  8
0
 10
403.878538
 20
89.771611
 42
0.029101
  0
VERTEX
  8
0
 10
404.433928
 20
90.250000
 42
-0.009829
  0
VERTEX
  8
0
 10
405.251209
 20
91.010736
 42
-0.001088
  0
VERTEX
  8
0
 10
407.157681
 20
92.709156
 42
-0.001326
  0
VERTEX
  8
0
 10
409.436847
 20
94.719951
 42
-0.001073
  0
VERTEX
  8
0
 10
411.893287
 20
96.866277
 42
0.015963
  0
VERTEX
  8
0
 10
419.155748
 20
103.603552
 42
0.012357
  0
VERTEX
  8
0
 10
426.639219
 20
111.379105
 42
0.011413
  0
VERTEX
  8
0
 10
433.062033
 20
118.721071
 42
0.052962
  0
VERTEX
  8
0
 10
436.192694
 20
123.396070
 42
-0.011376
  0
VERTEX
  8
0
 10
436.660439
 20
124.238208
 42
-0.012630
  0
VERTEX
  8
0
 10
437.150648
 20
125.028846
 42
-0.012039
  0
VERTEX
  8
0
 10
437.600613
 20
125.680464
 42
-0.062049
  0
VERTEX
  8
0
 10
437.899704
 20
126.000000
 42
0.104541
  0
VERTEX
  8
0
 10
438.796941
 20
127.137237
 42
0.002535
  0
VERTEX
  8
0
 10
441.753169
 20
133.186220
 42
0.005654
  0
VERTEX
  8
0
 10
444.478934
 20
139.003224
 42
0.025361
  0
VERTEX
  8
0
 10
445.860136
 20
142.500000
 42
0.023889
  0
VERTEX
  8
0
 10
447.064386
 20
146.724419
 42
0.015191
  0
VERTEX
  8
0
 10
448.078330
 20
151.737817
 42
0.015257
  0
VERTEX
  8
0
 10
448.775353
 20
156.732262
 42
0.027045
  0
VERTEX
  8
0
 10
449.000000
 20
160.882440
 42
0.028692
  0
VERTEX
  8
0
 10
448.731888
 20
165.550847
 42
0.015548
  0
VERTEX
  8
0
 10
447.895860
 20
171.243049
 42
0.010800
  0
VERTEX
  8
0
 10
446.819168
 20
176.595128
 42
0.129477
  0
VERTEX
  8
0
 10
445.859050
 20
178.450000
 42
-0.064527
  0
VERTEX
  8
0
 10
445.529040
 20
178.925922
 42
-0.035776
  0
VERTEX
  8
0
 10
445.249555
 20
179.576250
 42
-0.035023
  0
VERTEX
  8
0
 10
445.057190
 20
180.286887
 42
-0.047088
  0
VERTEX
  8
0
 10
444.990500
 20
180.950000
 42
0.106931
  0
VERTEX
  8
0
 10
444.783611
 20
181.878749
 42
0.010499
  0
VERTEX
  8
0
 10
443.773577
 20
183.952537
 42
0.012893
  0
VERTEX
  8
0
 10
442.439619
 20
186.394260
 42
0.009872
  0
VERTEX
  8
0
 10
440.861126
 20
188.994808
 42
0.000000
  0
VERTEX
  8
0
 10
436.741252
 20
195.489616
 42
0.000000
  0
VERTEX
  8
0
 10
438.009427
 20
205.071226
 42
0.033021
  0
VERTEX
  8
0
 10
438.725179
 20
215.971027
 42
0.014501
  0
VERTEX
  8
0
 10
438.299111
 20
230.436442
 42
0.014490
  0
VERTEX
  8
0
 10
437.037208
 20
244.833842
 42
0.033515
  0
VERTEX
  8
0
 10
435.058706
 20
255.500000
 42
0.007082
  0
VERTEX
  8
0
 10
431.604496
 20
268.249436
 42
0.016610
  0
VERTEX
  8
0
 10
428.575356
 20
277.642400
 42
0.018429
  0
VERTEX
  8
0
 10
425.132943
 20
286.210492
 42
0.010897
  0
VERTEX
  8
0
 10
420.431505
 20
296.179346
 42
0.016033
  0
VERTEX
  8
0
 10
416.062836
 20
304.280988
 42
0.009955
  0
VERTEX
  8
0
 10
410.447630
 20
313.511729
 42
0.004541
  0
VERTEX
  8
0
 10
404.754922
 20
322.286512
 42
0.153868
  0
VERTEX
  8
0
 10
402.845511
 20
323.833333
 42
-0.084885
  0
VERTEX
  8
0
 10
402.522273
 20
324.029248
 42
-0.065549
  0
VERTEX
  8
0
 10
402.248369
 20
324.338021
 42
-0.065400
  0
VERTEX
  8
0
 10
402.063173
 20
324.707990
 42
-0.083566
  0
VERTEX
  8
0
 10
402.000000
 20
325.083333
 42
-0.346618
  0
VERTEX
  8
0
 10
402.531339
 20
325.757711
 42
-0.056563
  0
VERTEX
  8
0
 10
404.300001
 20
325.976644
 42
-0.053152
  0
VERTEX
  8
0
 10
406.273794
 20
325.786474
 42
-0.134207
  0
VERTEX
  8
0
 10
407.550000
 20
325.139687
 42
0.097714
  0
VERTEX
  8
0
 10
409.021190
 20
324.255636
 42
0.008174
  0
VERTEX
  8
0
 10
413.244119
 20
322.809506
 42
0.010234
  0
VERTEX
  8
0
 10
418.541002
 20
321.210865
 42
0.006608
  0
VERTEX
  8
0
 10
424.734902
 20
319.566926
 42
0.046974
  0
VERTEX
  8
0
 10
432.733520
 20
318.338929
 42
0.014260
  0
VERTEX
  8
0
 10
445.009183
 20
317.971303
 42
0.014292
  0
VERTEX
  8
0
 10
457.295811
 20
318.305104
 42
0.046313
  0
VERTEX
  8
0
 10
465.355655
 20
319.509238
 42
0.046852
  0
VERTEX
  8
0
 10
487.168395
 20
327.090437
 42
0.059026
  0
VERTEX
  8
0
 10
505.424584
 20
338.184424
 42
0.061279
  0
VERTEX
  8
0
 10
520.061059
 20
352.849405
 42
0.056652
  0
VERTEX
  8
0
 10
531.160257
 20
371.000000
 42
0.028371
  0
VERTEX
  8
0
 10
535.468753
 20
381.820785
 42
0.033023
  0
VERTEX
  8
0
 10
538.273703
 20
392.529461
 42
0.033064
  0
VERTEX
  8
0
 10
539.641987
 20
403.502762
 42
0.028569
  0
VERTEX
  8
0
 10
539.651587
 20
415.115245
 42
0.012591
  0
VERTEX
  8
0
 10
538.706513
 20
426.689008
 42
0.027002
  0
VERTEX
  8
0
 10
537.274087
 20
435.528714
 42
0.026014
  0
VERTEX
  8
0
 10
534.860685
 20
444.363779
 42
0.010882
  0
VERTEX
  8
0
 10
530.738817
 20
456.000000
 42
0.035554
  0
VERTEX
  8
0
 10
526.889487
 20
464.321192
 42
0.018849
  0
VERTEX
  8
0
 10
521.024562
 20
474.060035
 42
0.018759
  0
VERTEX
  8
0
 10
514.314838
 20
483.513292
 42
0.029883
  0
VERTEX
  8
0
 10
507.820700
 20
491.000000
 42
0.042076
  0
VERTEX
  8
0
 10
496.302411
 20
500.948922
 42
0.035172
  0
VERTEX
  8
0
 10
482.591004
 20
509.507236
 42
0.035251
  0
VERTEX
  8
0
 10
467.852900
 20
516.039776
 42
0.042873
  0
VERTEX
  8
0
 10
453.268177
 20
519.936093
 42
0.008261
  0
VERTEX
  8
0
 10
440.749059
 20
521.941523
 42
0.022443
  0
VERTEX
  8
0
 10
431.810269
 20
522.815297
 42
0.028278
  0
VERTEX
  8
0
 10
424.096941
 20
522.784621
 42
0.022121
  0
VERTEX
  8
0
 10
415.768559
 20
521.909010
 42
0.035094
  0
VERTEX
  8
0
 10
400.496733
 20
518.507652
 42
0.044329
  0
VERTEX
  8
0
 10
387.051687
 20
513.170193
 42
0.044930
  0
VERTEX
  8
0
 10
374.901164
 20
505.614886
 42
0.037645
  0
VERTEX
  8
0
 10
363.500000
 20
495.587921
 42
0.024282
  0
VERTEX
  8
0
 10
357.770617
 20
489.129221
 42
0.016851
  0
VERTEX
  8
0
 10
351.916029
 20
481.321086
 42
0.011956
  0
VERTEX
  8
0
 10
346.955885
 20
473.844700
 42
0.141395
  0
VERTEX
  8
0
 10
346.000000
 20
470.532080
 42
-0.055116
  0
VERTEX
  8
0
 10
345.935808
 20
469.951513
 42
-0.049456
  0
VERTEX
  8
0
 10
345.745779
 20
469.376293
 42
-0.052502
  0
VERTEX
  8
0
 10
345.466095
 20
468.890982
 42
-0.097685
  0
VERTEX
  8
0
 10
345.134568
 20
468.583168
 42
0.179486
  0
VERTEX
  8
0
 10
343.979822
 20
467.101519
 42
0.003556
  0
VERTEX
  8
0
 10
341.105590
 20
457.801025
 42
0.009175
  0
VERTEX
  8
0
 10
338.531639
 20
448.652738
 42
0.023114
  0
VERTEX
  8
0
 10
337.091211
 20
441.884703
 42
0.043054
  0
VERTEX
  8
0
 10
335.971261
 20
427.448954
 42
0.032458
  0
VERTEX
  8
0
 10
337.140676
 20
411.571653
 42
0.033129
  0
VERTEX
  8
0
 10
340.259690
 20
396.544165
 42
0.057669
  0
VERTEX
  8
0
 10
345.048443
 20
384.763569
 42
-0.022684
  0
VERTEX
  8
0
 10
345.412678
 20
384.020848
 42
-0.020696
  0
VERTEX
  8
0
 10
345.720480
 20
383.225368
 42
-0.021203
  0
VERTEX
  8
0
 10
345.935750
 20
382.491713
 42
-0.060827
  0
VERTEX
  8
0
 10
346.000000
 20
381.965532
 42
0.115736
  0
VERTEX
  8
0
 10
346.155293
 20
381.303629
 42
0.007975
  0
VERTEX
  8
0
 10
347.042968
 20
379.585352
 42
0.011026
  0
VERTEX
  8
0
 10
348.190516
 20
377.556949
 42
0.008049
  0
VERTEX
  8
0
 10
349.550530
 20
375.353554
 42
-0.010628
  0
VERTEX
  8
0
 10
350.888636
 20
373.160434
 42
-0.015386
  0
VERTEX
  8
0
 10
351.968318
 20
371.164280
 42
-0.010959
  0
VERTEX
  8
0
 10
352.765688
 20
369.484215
 42
-0.187906
  0
VERTEX
  8
0
 10
352.795445
 20
368.886336
 42
-0.388169
  0
VERTEX
  8
0
 10
352.394472
 20
368.662830
 42
-0.019432
  0
VERTEX
  8
0
 10
350.818598
 20
369.100452
 42
-0.022836
  0
VERTEX
  8
0
 10
348.815614
 20
369.843874
 42
-0.013496
  0
VERTEX
  8
0
 10
346.494915
 20
370.902725
 42
0.003327
  0
VERTEX
  8
0
 10
343.906790
 20
372.147789
 42
0.002615
  0
VERTEX
  8
0
 10
341.086006
 20
373.463736
 42
0.002643
  0
VERTEX
  8
0
 10
338.450719
 20
374.659566
 42
0.006509
  0
VERTEX
  8
0
 10
336.500000
 20
375.502048
 42
-0.003628
  0
VERTEX
  8
0
 10
334.841123
 20
376.207176
 42
-0.003450
  0
VERTEX
  8
0
 10
333.164485
 20
376.948051
 42
-0.003424
  0
VERTEX
  8
0
 10
331.691366
 20
377.623350
 42
-0.012195
  0
VERTEX
  8
0
 10
330.762077
 20
378.084999
 42
0.044247
  0
VERTEX
  8
0
 10
325.135006
 20
380.444327
 42
0.008038
  0
VERTEX
  8
0
 10
314.287713
 20
383.710918
 42
0.008974
  0
VERTEX
  8
0
 10
303.151346
 20
386.655359
 42
0.027687
  0
VERTEX
  8
0
 10
295.500000
 20
388.088639
 42
0.011559
  0
VERTEX
  8
0
 10
279.309266
 20
389.822790
 42
0.020874
  0
VERTEX
  8
0
 10
265.984448
 20
390.380645
 42
0.021162
  0
VERTEX
  8
0
 10
252.783351
 20
389.822989
 42
0.012273
  0
VERTEX
  8
0
 10
237.000000
 20
388.094481
 42
0.021629
  0
VERTEX
  8
0
 10
227.419863
 20
386.382098
 42
0.013842
  0
VERTEX
  8
0
 10
216.458284
 20
383.608720
 42
0.013902
  0
VERTEX
  8
0
 10
205.814983
 20
380.277907
 42
0.024388
  0
VERTEX
  8
0
 10
197.247332
 20
376.857238
 42
-0.005591
  0
VERTEX
  8
0
 10
194.779546
 20
375.762738
 42
-0.007714
  0
VERTEX
  8
0
 10
192.538419
 20
374.839314
 42
-0.005170
  0
VERTEX
  8
0
 10
190.647218
 20
374.116491
 42
-0.088916
  0
VERTEX
  8
0
 10
189.997332
 20
374.000000
 42
-0.317833
  0
VERTEX
  8
0
 10
189.215625
 20
374.552742
 42
-0.132926
  0
VERTEX
  8
0
 10
189.112986
 20
375.908764
 42
-0.064163
  0
VERTEX
  8
0
 10
189.819860
 20
378.064126
 42
-0.026418
  0
VERTEX
  8
0
 10
191.290583
 20
380.769872
 42
0.016656
  0
VERTEX
  8
0
 10
192.755998
 20
383.344794
 42
0.013682
  0
VERTEX
  8
0
 10
194.151335
 20
386.184433
 42
0.009608
  0
VERTEX
  8
0
 10
195.773669
 20
389.915573
 42
0.003105
  0
VERTEX
  8
0
 10
198.034808
 20
395.500000
 42
0.038210
  0
VERTEX
  8
0
 10
202.107295
 20
408.566564
 42
0.030680
  0
VERTEX
  8
0
 10
204.518350
 20
423.099383
 42
0.031584
  0
VERTEX
  8
0
 10
205.076419
 20
437.072028
 42
0.057959
  0
VERTEX
  8
0
 10
203.500000
 20
448.338691
 42
-0.009046
  0
VERTEX
  8
0
 10
202.925795
 20
450.718944
 42
-0.009159
  0
VERTEX
  8
0
 10
202.440625
 20
453.108613
 42
-0.008994
  0
VERTEX
  8
0
 10
202.094171
 20
455.202159
 42
-0.036519
  0
VERTEX
  8
0
 10
202.000000
 20
456.489773
 42
0.038375
  0
VERTEX
  8
0
 10
201.926134
 20
457.450772
 42
0.041851
  0
VERTEX
  8
0
 10
201.706250
 20
458.360807
 42
0.045936
  0
VERTEX
  8
0
 10
201.384408
 20
459.096187
 42
0.128926
  0
VERTEX
  8
0
 10
201.000000
 20
459.500000
 42
-0.093165
  0
VERTEX
  8
0
 10
200.617047
 20
459.849226
 42
-0.052970
  0
VERTEX
  8
0
 10
200.293750
 20
460.388819
 42
-0.050373
  0
VERTEX
  8
0
 10
200.074180
 20
461.023029
 42
-0.058224
  0
VERTEX
  8
0
 10
200.000000
 20
461.657888
 42
0.081624
  0
VERTEX
  8
0
 10
199.722196
 20
463.348282
 42
0.015354
  0
VERTEX
  8
0
 10
198.625293
 20
466.293868
 42
0.012469
  0
VERTEX
  8
0
 10
196.857716
 20
470.337221
 42
0.004595
  0
VERTEX
  8
0
 10
194.170850
 20
475.953146
 42
0.038416
  0
VERTEX
  8
0
 10
188.930055
 20
484.852115
 42
0.027744
  0
VERTEX
  8
0
 10
181.825852
 20
493.921196
 42
0.027537
  0
VERTEX
  8
0
 10
173.678996
 20
502.238694
 42
0.035454
  0
VERTEX
  8
0
 10
165.293273
 20
508.879937
 42
0.005747
  0
VERTEX
  8
0
 10
162.922512
 20
510.458570
 42
0.008387
  0
VERTEX
  8
0
 10
160.795439
 20
511.789731
 42
0.004703
  0
VERTEX
  8
0
 10
158.982470
 20
512.859316
 42
0.131653
  0
VERTEX
  8
0
 10
158.457431
 20
513.000000
 42
-0.102818
  0
VERTEX
  8
0
 10
158.047321
 20
513.085234
 42
-0.025429
  0
VERTEX
  8
0
 10
157.428711
 20
513.392246
 42
-0.024938
  0
VERTEX
  8
0
 10
156.741867
 20
513.824195
 42
-0.022703
  0
VERTEX
  8
0
 10
156.078741
 20
514.335305
 42
0.040883
  0
VERTEX
  8
0
 10
155.234635
 20
514.938345
 42
0.014424
  0
VERTEX
  8
0
 10
153.935630
 20
515.664559
 42
0.014207
  0
VERTEX
  8
0
 10
152.455776
 20
516.383997
 42
0.016195
  0
VERTEX
  8
0
 10
151.000000
 20
516.985313
 42
-0.001856
  0
VERTEX
  8
0
 10
149.441600
 20
517.577303
 42
-0.001210
  0
VERTEX
  8
0
 10
147.646875
 20
518.271686
 42
-0.001217
  0
VERTEX
  8
0
 10
145.899747
 20
518.957420
 42
-0.002323
  0
VERTEX
  8
0
 10
144.500000
 20
519.518278
 42
0.020606
  0
VERTEX
  8
0
 10
140.497619
 20
520.954532
 42
0.009971
  0
VERTEX
  8
0
 10
135.272760
 20
522.476161
 42
0.009767
  0
VERTEX
  8
0
 10
129.670194
 20
523.870480
 42
0.012362
  0
VERTEX
  8
0
 10
124.439805
 20
524.928886
 42
0.032286
  0
VERTEX
  8
0
 10
117.993247
 20
525.643417
 42
0.010856
  0
VERTEX
  8
0
 10
108.527237
 20
525.871847
 42
0.008755
  0
VERTEX
  8
0
 10
99.229076
 20
525.731481
 42
0.069444
  0
SEQEND
  0
POLYLINE
  8
0
 66
1
 70
1
  0
VERTEX
  8
0
 10
237.096980
 20
377.685796
 42
-0.011575
  0
VERTEX
  8
0
 10
239.342664
 20
377.155419
 42
-0.013242
  0
VERTEX
  8
0
 10
241.461984
 20
376.542425
 42
-0.012430
  0
VERTEX
  8
0
 10
243.225260
 20
375.932743
 42
-0.070304
  0
VERTEX
  8
0
 10
244.096980
 20
375.458629
 42
0.020248
  0
VERTEX
  8
0
 10
244.819448
 20
374.966456
 42
0.007403
  0
VERTEX
  8
0
 10
245.878709
 20
374.327569
 42
0.007325
  0
VERTEX
  8
0
 10
247.058636
 20
373.662488
 42
0.008701
  0
VERTEX
  8
0
 10
248.192244
 20
373.070560
 42
-0.059044
  0
VERTEX
  8
0
 10
251.668251
 20
370.784390
 42
-0.028715
  0
VERTEX
  8
0
 10
255.536150
 20
367.129183
 42
-0.027313
  0
VERTEX
  8
0
 10
259.286700
 20
362.691129
 42
-0.029233
  0
VERTEX
  8
0
 10
262.440150
 20
357.966807
 42
-0.009202
  0
VERTEX
  8
0
 10
263.803491
 20
355.539297
 42
-0.012039
  0
VERTEX
  8
0
 10
264.954294
 20
353.269522
 42
-0.009666
  0
VERTEX
  8
0
 10
265.826754
 20
351.346050
 42
-0.101976
  0
VERTEX
  8
0
 10
266.000000
 20
350.505441
 42
0.056791
  0
VERTEX
  8
0
 10
266.065055
 20
349.934533
 42
0.049967
  0
VERTEX
  8
0
 10
266.257620
 20
349.366367
 42
0.052776
  0
VERTEX
  8
0
 10
266.541106
 20
348.884833
 42
0.095208
  0
VERTEX
  8
0
 10
266.877005
 20
348.576015
 42
-0.142537
  0
VERTEX
  8
0
 10
267.278602
 20
348.130908
 42
-0.017094
  0
VERTEX
  8
0
 10
267.820167
 20
346.907379
 42
-0.019248
  0
VERTEX
  8
0
 10
268.370034
 20
345.372614
 42
-0.014716
  0
VERTEX
  8
0
 10
268.856229
 20
343.656685
 42
0.022659
  0
VERTEX
  8
0
 10
269.386981
 20
341.890899
 42
0.023590
  0
VERTEX
  8
0
 10
270.069297
 20
340.204502
 42
0.024115
  0
VERTEX
  8
0
 10
270.794937
 20
338.810189
 42
0.087723
  0
VERTEX
  8
0
 10
271.438023
 20
338.051436
 42
0.059010
  0
VERTEX
  8
0
 10
272.239606
 20
337.532156
 42
0.285573
  0
VERTEX
  8
0
 10
272.755737
 20
337.583621
 42
0.158269
  0
VERTEX
  8
0
 10
273.145773
 20
338.152341
 42
0.018566
  0
VERTEX
  8
0
 10
273.531317
 20
339.661749
 42
-0.063072
  0
VERTEX
  8
0
 10
276.896873
 20
349.208512
 42
-0.043666
  0
VERTEX
  8
0
 10
282.909653
 20
358.967712
 42
-0.044486
  0
VERTEX
  8
0
 10
290.282730
 20
367.233566
 42
-0.082873
  0
VERTEX
  8
0
 10
297.730220
 20
372.200049
 42
-0.036154
  0
VERTEX
  8
0
 10
300.791237
 20
373.319127
 42
-0.037749
  0
VERTEX
  8
0
 10
303.937817
 20
373.966009
 42
-0.024341
  0
VERTEX
  8
0
 10
308.146863
 20
374.297623
 42
-0.005960
  0
VERTEX
  8
0
 10
315.098612
 20
374.422990
 42
-0.007119
  0
VERTEX
  8
0
 10
320.550524
 20
374.378687
 42
-0.012975
  0
VERTEX
  8
0
 10
324.996958
 20
374.163698
 42
-0.013410
  0
VERTEX
  8
0
 10
328.418168
 20
373.816698
 42
-0.083488
  0
VERTEX
  8
0
 10
330.098612
 20
373.307005
 42
0.006162
  0
VERTEX
  8
0
 10
331.386077
 20
372.687063
 42
0.001654
  0
VERTEX
  8
0
 10
333.446432
 20
371.734341
 42
0.001676
  0
VERTEX
  8
0
 10
335.794268
 20
370.667608
 42
0.001733
  0
VERTEX
  8
0
 10
338.123282
 20
369.628523
 42
-0.046049
  0
VERTEX
  8
0
 10
345.553070
 20
365.490016
 42
-0.036345
  0
VERTEX
  8
0
 10
352.754097
 20
359.750860
 42
-0.033079
  0
VERTEX
  8
0
 10
359.681747
 20
352.448913
 42
-0.025188
  0
VERTEX
  8
0
 10
366.290630
 20
343.620493
 42
-0.014565
  0
VERTEX
  8
0
 10
370.247075
 20
337.353180
 42
-0.022117
  0
VERTEX
  8
0
 10
373.277236
 20
331.668770
 42
-0.021228
  0
VERTEX
  8
0
 10
375.878227
 20
325.569168
 42
-0.012087
  0
VERTEX
  8
0
 10
378.525525
 20
318.000000
 42
0.002977
  0
VERTEX
  8
0
 10
379.639618
 20
314.618091
 42
0.003699
  0
VERTEX
  8
0
 10
380.717712
 20
311.486798
 42
0.003026
  0
VERTEX
  8
0
 10
381.657725
 20
308.871379
 42
0.027797
  0
VERTEX
  8
0
 10
382.134828
 20
307.763569
 42
-0.040498
  0
VERTEX
  8
0
 10
382.466727
 20
306.935710
 42
-0.021841
  0
VERTEX
  8
0
 10
382.745856
 20
305.872181
 42
-0.021616
  0
VERTEX
  8
0
 10
382.937047
 20
304.756826
 42
-0.031646
  0
VERTEX
  8
0
 10
383.000000
 20
303.763195
 42
0.033551
  0
VERTEX
  8
0
 10
383.086615
 20
302.473872
 42
0.006137
  0
VERTEX
  8
0
 10
383.435524
 20
300.108146
 42
0.006575
  0
VERTEX
  8
0
 10
383.915033
 20
297.345459
 42
0.005932
  0
VERTEX
  8
0
 10
384.482636
 20
294.499626
 42
-0.041271
  0
VERTEX
  8
0
 10
385.686322
 20
285.015080
 42
-0.011136
  0
VERTEX
  8
0
 10
386.011992
 20
269.847156
 42
-0.011508
  0
VERTEX
  8
0
 10
385.646512
 20
254.506322
 42
-0.033668
  0
VERTEX
  8
0
 10
384.442035
 20
244.000000
 42
-0.010741
  0
VERTEX
  8
0
 10
381.944769
 20
231.863666
 42
-0.016222
  0
VERTEX
  8
0
 10
379.203826
 20
221.428298
 42
-0.018098
  0
VERTEX
  8
0
 10
376.068768
 20
212.139085
 42
-0.020491
  0
VERTEX
  8
0
 10
372.382983
 20
203.485647
 42
0.015160
  0
VERTEX
  8
0
 10
370.329163
 20
198.802813
 42
0.148124
  0
VERTEX
  8
0
 10
370.139501
 20
196.674861
 42
0.411331
  0
VERTEX
  8
0
 10
371.185949
 20
195.981594
 42
0.065390
  0
VERTEX
  8
0
 10
373.763569
 20
196.852862
 42
-0.036314
  0
VERTEX
  8
0
 10
382.430709
 20
200.354413
 42
-0.031863
  0
VERTEX
  8
0
 10
391.898899
 20
202.748374
 42
-0.033247
  0
VERTEX
  8
0
 10
400.778052
 20
203.796318
 42
-0.075078
  0
VERTEX
  8
0
 10
407.500000
 20
203.129581
 42
-0.000093
  0
VERTEX
  8
0
 10
409.289008
 20
202.674817
 42
-0.000060
  0
VERTEX
  8
0
 10
411.365202
 20
202.146372
 42
-0.000060
  0
VERTEX
  8
0
 10
413.397863
 20
201.628488
 42
-0.000113
  0
VERTEX
  8
0
 10
415.041115
 20
201.209212
 42
-0.051612
  0
VERTEX
  8
0
 10
418.104008
 20
200.080124
 42
-0.018401
  0
VERTEX
  8
0
 10
422.215204
 20
197.870822
 42
-0.018696
  0
VERTEX
  8
0
 10
426.230315
 20
195.312569
 42
-0.040697
  0
VERTEX
  8
0
 10
429.055049
 20
193.000000
 42
-0.033352
  0
VERTEX
  8
0
 10
431.131499
 20
190.710952
 42
-0.011623
  0
VERTEX
  8
0
 10
433.814857
 20
187.157728
 42
-0.011371
  0
VERTEX
  8
0
 10
436.309166
 20
183.518288
 42
-0.038775
  0
VERTEX
  8
0
 10
437.686802
 20
181.000000
 42
-0.034215
  0
VERTEX
  8
0
 10
439.149404
 20
177.050466
 42
-0.014649
  0
VERTEX
  8
0
 10
440.580446
 20
171.604577
 42
-0.014331
  0
VERTEX
  8
0
 10
441.673751
 20
166.183553
 42
-0.043365
  0
VERTEX
  8
0
 10
441.988193
 20
162.434396
 42
-0.043031
  0
VERTEX
  8
0
 10
441.675443
 20
158.930031
 42
-0.009906
  0
VERTEX
  8
0
 10
440.525551
 20
153.102861
 42
-0.010453
  0
VERTEX
  8
0
 10
438.968582
 20
146.615525
 42
-0.012040
  0
VERTEX
  8
0
 10
437.206528
 20
140.500000
 42
-0.043797
  0
VERTEX
  8
0
 10
435.345103
 20
135.999083
 42
-0.011292
  0
VERTEX
  8
0
 10
431.557899
 20
129.103853
 42
-0.011995
  0
VERTEX
  8
0
 10
427.324834
 20
122.181527
 42
-0.027347
  0
VERTEX
  8
0
 10
423.729912
 20
117.225102
 42
-0.023173
  0
VERTEX
  8
0
 10
419.863770
 20
112.892151
 42
-0.005100
  0
VERTEX
  8
0
 10
412.814683
 20
105.838331
 42
-0.005184
  0
VERTEX
  8
0
 10
405.608982
 20
98.918473
 42
-0.021760
  0
VERTEX
  8
0
 10
401.061943
 20
95.000000
 42
-0.006545
  0
VERTEX
  8
0
 10
396.400601
 20
91.421864
 42
-0.005446
  0
VERTEX
  8
0
 10
391.354664
 20
87.737378
 42
-0.001514
  0
VERTEX
  8
0
 10
386.436248
 20
84.249922
 42
-0.154654
  0
VERTEX
  8
0
 10
385.647571
 20
84.000000
 42
0.133246
  0
VERTEX
  8
0
 10
385.298050
 20
83.905172
 42
0.002290
  0
VERTEX
  8
0
 10
383.580273
 20
82.888418
 42
0.005649
  0
VERTEX
  8
0
 10
381.588094
 20
81.666126
 42
0.003709
  0
VERTEX
  8
0
 10
379.320714
 20
80.215892
 42
-0.023244
  0
VERTEX
  8
0
 10
370.987575
 20
75.333663
 42
-0.009276
  0
VERTEX
  8
0
 10
359.153798
 20
69.397619
 42
-0.005207
  0
VERTEX
  8
0
 10
347.212392
 20
63.834441
 42
-0.106793
  0
VERTEX
  8
0
 10
343.350145
 20
63.000000
 42
-0.387455
  0
VERTEX
  8
0
 10
342.989060
 20
63.329233
 42
-0.135448
  0
VERTEX
  8
0
 10
343.124132
 20
64.084182
 42
-0.047452
  0
VERTEX
  8
0
 10
343.919645
 20
65.407895
 42
-0.012627
  0
VERTEX
  8
0
 10
345.433050
 20
67.352992
 42
0.006787
  0
VERTEX
  8
0
 10
346.799753
 20
69.067835
 42
0.009917
  0
VERTEX
  8
0
 10
347.952209
 20
70.617351
 42
0.005812
  0
VERTEX
  8
0
 10
348.873294
 20
71.940764
 42
0.150216
  0
VERTEX
  8
0
 10
349.000000
 20
72.352992
 42
0.382704
  0
VERTEX
  8
0
 10
348.504986
 20
72.905002
 42
0.151737
  0
VERTEX
  8
0
 10
347.418536
 20
72.693340
 42
0.054373
  0
VERTEX
  8
0
 10
345.604226
 20
71.446165
 42
0.018049
  0
VERTEX
  8
0
 10
343.232393
 20
69.250000
 42
-0.010236
  0
VERTEX
  8
0
 10
341.466867
 20
67.563248
 42
-0.005728
  0
VERTEX
  8
0
 10
339.254817
 20
65.581028
 42
-0.005712
  0
VERTEX
  8
0
 10
336.972280
 20
63.627928
 42
-0.009250
  0
VERTEX
  8
0
 10
334.982393
 20
62.025839
 42
0.002360
  0
VERTEX
  8
0
 10
333.228921
 20
60.653481
 42
0.003265
  0
VERTEX
  8
0
 10
331.669828
 20
59.404722
 42
0.002052
  0
VERTEX
  8
0
 10
330.370833
 20
58.341420
 42
0.040228
  0
VERTEX
  8
0
 10
330.000000
 20
57.981496
 42
-0.075925
  0
VERTEX
  8
0
 10
326.852528
 20
55.334052
 42
-0.009120
  0
VERTEX
  8
0
 10
318.995828
 20
50.735688
 42
-0.010406
  0
VERTEX
  8
0
 10
309.175877
 20
45.491853
 42
-0.007468
  0
VERTEX
  8
0
 10
298.000000
 20
40.027965
 42
-0.037891
  0
VERTEX
  8
0
 10
295.133584
 20
38.935776
 42
-0.007856
  0
VERTEX
  8
0
 10
289.935818
 20
37.482761
 42
-0.008644
  0
VERTEX
  8
0
 10
284.177643
 20
36.076158
 42
-0.011729
  0
VERTEX
  8
0
 10
278.930988
 20
35.018936
 42
-0.050799
  0
VERTEX
  8
0
 10
263.776284
 20
33.897358
 42
-0.044724
  0
VERTEX
  8
0
 10
248.024039
 20
35.749208
 42
-0.042014
  0
VERTEX
  8
0
 10
231.930046
 20
40.558706
 42
-0.034732
  0
VERTEX
  8
0
 10
215.759950
 20
48.246580
 42
-0.029934
  0
VERTEX
  8
0
 10
209.803119
 20
52.090760
 42
-0.008816
  0
VERTEX
  8
0
 10
201.148419
 20
58.677942
 42
-0.009215
  0
VERTEX
  8
0
 10
192.343374
 20
65.895374
 42
-0.016987
  0
VERTEX
  8
0
 10
185.500000
 20
72.131865
 42
0.006051
  0
VERTEX
  8
0
 10
182.026830
 20
75.438914
 42
0.010539
  0
VERTEX
  8
0
 10
179.056819
 20
78.084679
 42
0.004872
  0
VERTEX
  8
0
 10
176.566175
 20
80.169371
 42
0.520785
  0
VERTEX
  8
0
 10
176.204066
 20
80.067939
 42
0.161165
  0
VERTEX
  8
0
 10
176.194797
 20
79.547998
 42
0.017546
  0
VERTEX
  8
0
 10
176.596056
 20
78.402169
 42
0.020058
  0
VERTEX
  8
0
 10
177.192086
 20
77.038449
 42
0.014902
  0
VERTEX
  8
0
 10
177.954066
 20
75.581782
 42
-0.014166
  0
VERTEX
  8
0
 10
179.433668
 20
72.763344
 42
-0.085443
  0
VERTEX
  8
0
 10
179.896077
 20
71.182817
 42
-0.252420
  0
VERTEX
  8
0
 10
179.563798
 20
70.351764
 42
-0.175759
  0
VERTEX
  8
0
 10
178.594011
 20
70.000000
 42
-0.113801
  0
VERTEX
  8
0
 10
176.775587
 20
70.419306
 42
-0.002762
  0
VERTEX
  8
0
 10
168.994335
 20
74.262668
 42
-0.006586
  0
VERTEX
  8
0
 10
161.513843
 20
78.133087
 42
-0.019253
  0
VERTEX
  8
0
 10
156.500000
 20
81.065023
 42
0.006271
  0
VERTEX
  8
0
 10
155.241408
 20
81.845535
 42
0.005937
  0
VERTEX
  8
0
 10
153.940625
 20
82.608885
 42
0.005909
  0
VERTEX
  8
0
 10
152.773577
 20
83.257084
 42
0.020663
  0
VERTEX
  8
0
 10
152.000000
 20
83.634450
 42
-0.073459
  0
VERTEX
  8
0
 10
144.662557
 20
88.226379
 42
-0.008813
  0
VERTEX
  8
0
 10
130.297705
 20
100.913753
 42
-0.004777
  0
VERTEX
  8
0
 10
115.639448
 20
114.587058
 42
-0.205469
  0
VERTEX
  8
0
 10
114.000000
 20
118.408147
 42
0.080043
  0
VERTEX
  8
0
 10
113.903999
 20
119.003989
 42
0.044238
  0
VERTEX
  8
0
 10
113.610807
 20
119.682441
 42
0.042687
  0
VERTEX
  8
0
 10
113.182070
 20
120.334483
 42
0.052823
  0
VERTEX
  8
0
 10
112.675088
 20
120.854690
 42
-0.098623
  0
VERTEX
  8
0
 10
110.811822
 20
123.151950
 42
-0.011792
  0
VERTEX
  8
0
 10
107.885936
 20
129.038674
 42
-0.014672
  0
VERTEX
  8
0
 10
104.948750
 20
135.827236
 42
-0.017208
  0
VERTEX
  8
0
 10
102.579600
 20
142.428139
 42
-0.057352
  0
VERTEX
  8
0
 10
101.476485
 20
147.995632
 42
-0.014700
  0
VERTEX
  8
0
 10
101.002035
 20
157.177812
 42
-0.007623
  0
VERTEX
  8
0
 10
100.936179
 20
166.610327
 42
-0.257729
  0
VERTEX
  8
0
 10
102.000000
 20
168.500000
 42
0.090998
  0
VERTEX
  8
0
 10
102.382899
 20
168.846176
 42
0.053141
  0
VERTEX
  8
0
 10
102.706250
 20
169.375892
 42
0.050785
  0
VERTEX
  8
0
 10
102.925823
 20
169.995855
 42
0.059797
  0
VERTEX
  8
0
 10
103.000000
 20
170.613881
 42
-0.104193
  0
VERTEX
  8
0
 10
103.645172
 20
173.676327
 42
-0.029722
  0
VERTEX
  8
0
 10
105.877602
 20
178.020493
 42
-0.029463
  0
VERTEX
  8
0
 10
108.956232
 20
182.588459
 42
-0.033376
  0
VERTEX
  8
0
 10
112.434783
 20
186.565217
 42
-0.029436
  0
VERTEX
  8
0
 10
116.299258
 20
189.999620
 42
-0.037130
  0
VERTEX
  8
0
 10
120.264285
 20
192.674347
 42
-0.034220
  0
VERTEX
  8
0
 10
124.837925
 20
194.888305
 42
-0.020002
  0
VERTEX
  8
0
 10
130.575519
 20
196.933474
 42
-0.076315
  0
VERTEX
  8
0
 10
137.138135
 20
197.925827
 42
-0.019740
  0
VERTEX
  8
0
 10
147.856513
 20
197.478254
 42
-0.019620
  0
VERTEX
  8
0
 10
158.492321
 20
196.191021
 42
-0.078696
  0
VERTEX
  8
0
 10
164.700354
 20
194.156150
 42
0.009740
  0
VERTEX
  8
0
 10
170.322920
 20
191.410027
 42
0.173271
  0
VERTEX
  8
0
 10
172.300300
 20
191.228154
 42
0.476467
  0
VERTEX
  8
0
 10
172.789631
 20
192.294864
 42
0.030021
  0
VERTEX
  8
0
 10
170.826526
 20
195.729672
 42
-0.038670
  0
VERTEX
  8
0
 10
165.413210
 20
205.592981
 42
-0.021711
  0
VERTEX
  8
0
 10
160.324300
 20
218.288592
 42
-0.020514
  0
VERTEX
  8
0
 10
155.981194
 20
232.489880
 42
-0.020511
  0
VERTEX
  8
0
 10
152.816295
 20
247.000000
 42
-0.035433
  0
VERTEX
  8
0
 10
151.756445
 20
257.263311
 42
-0.008245
  0
VERTEX
  8
0
 10
151.486375
 20
274.600695
 42
-0.007475
  0
VERTEX
  8
0
 10
151.760258
 20
291.865018
 42
-0.048264
  0
VERTEX
  8
0
 10
152.865164
 20
300.500000
 42
-0.018324
  0
VERTEX
  8
0
 10
156.154115
 20
312.845455
 42
-0.023264
  0
VERTEX
  8
0
 10
160.126990
 20
323.951912
 42
-0.024614
  0
VERTEX
  8
0
 10
164.893881
 20
334.096803
 42
-0.025854
  0
VERTEX
  8
0
 10
170.564716
 20
343.553377
 42
-0.016516
  0
VERTEX
  8
0
 10
175.535261
 20
350.444113
 42
-0.025240
  0
VERTEX
  8
0
 10
180.329045
 20
356.039390
 42
-0.026260
  0
VERTEX
  8
0
 10
185.513615
 20
360.961303
 42
-0.020082
  0
VERTEX
  8
0
 10
191.659276
 20
365.797786
 42
-0.041288
  0
VERTEX
  8
0
 10
202.993096
 20
372.654327
 42
-0.051454
  0
VERTEX
  8
0
 10
214.511360
 20
376.972934
 42
-0.055158
  0
VERTEX
  8
0
 10
225.961407
 20
378.653037
 42
-0.061143
  0
SEQEND
  0
POLYLINE
  8
0
 66
1
 70
1
  0
VERTEX
  8
0
 10
239.366987
 20
305.351599
 42
0.134849
  0
VERTEX
  8
0
 10
236.447871
 20
303.830011
 42
0.045969
  0
VERTEX
  8
0
 10
233.231202
 20
300.238092
 42
0.041744
  0
VERTEX
  8
0
 10
230.244238
 20
295.420726
 42
0.037474
  0
VERTEX
  8
0
 10
227.973624
 20
290.000000
 42
0.060523
  0
VERTEX
  8
0
 10
223.540795
 20
268.228567
 42
0.042293
  0
VERTEX
  8
0
 10
223.655451
 20
243.151034
 42
0.043221
  0
VERTEX
  8
0
 10
227.743068
 20
220.098874
 42
0.109844
  0
VERTEX
  8
0
 10
235.557732
 20
205.113759
 42
-0.009546
  0
VERTEX
  8
0
 10
237.220927
 20
203.058778
 42
-0.121773
  0
VERTEX
  8
0
 10
237.621470
 20
202.159366
 42
-0.235593
  0
VERTEX
  8
0
 10
237.410266
 20
201.441479
 42
-0.046326
  0
VERTEX
  8
0
 10
236.377837
 20
200.518779
 42
-0.021387
  0
VERTEX
  8
0
 10
235.384473
 20
199.847928
 42
-0.006890
  0
VERTEX
  8
0
 10
233.857581
 20
198.937990
 42
-0.006858
  0
VERTEX
  8
0
 10
232.129150
 20
197.971329
 42
-0.007635
  0
VERTEX
  8
0
 10
230.435205
 20
197.087402
 42
0.027500
  0
VERTEX
  8
0
 10
228.676204
 20
196.078715
 42
0.017643
  0
VERTEX
  8
0
 10
226.747913
 20
194.728317
 42
0.017731
  0
VERTEX
  8
0
 10
224.948036
 20
193.267840
 42
0.031471
  0
VERTEX
  8
0
 10
223.590732
 20
191.924970
 42
0.002822
  0
VERTEX
  8
0
 10
221.734445
 20
189.817776
 42
0.135437
  0
VERTEX
  8
0
 10
221.492492
 20
189.313422
 42
0.540409
  0
VERTEX
  8
0
 10
221.700257
 20
189.116756
 42
0.014450
  0
VERTEX
  8
0
 10
223.155527
 20
189.506753
 42
0.022445
  0
VERTEX
  8
0
 10
224.213291
 20
189.875715
 42
0.012665
  0
VERTEX
  8
0
 10
225.461913
 20
190.412224
 42
0.012623
  0
VERTEX
  8
0
 10
226.696601
 20
191.018423
 42
0.020182
  0
VERTEX
  8
0
 10
227.714817
 20
191.604125
 42
-0.032121
  0
VERTEX
  8
0
 10
228.697372
 20
192.138529
 42
-0.025508
  0
VERTEX
  8
0
 10
229.818116
 20
192.589962
 42
-0.026166
  0
VERTEX
  8
0
 10
230.904157
 20
192.901776
 42
-0.056879
  0
VERTEX
  8
0
 10
231.764817
 20
193.000000
 42
0.041476
  0
VERTEX
  8
0
 10
232.537157
 20
193.064178
 42
0.034371
  0
VERTEX
  8
0
 10
233.339977
 20
193.255989
 42
0.035669
  0
VERTEX
  8
0
 10
234.054916
 20
193.537034
 42
0.074248
  0
VERTEX
  8
0
 10
234.550000
 20
193.871452
 42
-0.112132
  0
VERTEX
  8
0
 10
236.468571
 20
194.967331
 42
-0.009923
  0
VERTEX
  8
0
 10
241.868715
 20
196.495603
 42
-0.012267
  0
VERTEX
  8
0
 10
248.591549
 20
198.079751
 42
-0.008347
  0
VERTEX
  8
0
 10
256.308461
 20
199.565379
 42
-0.045368
  0
VERTEX
  8
0
 10
271.850637
 20
200.855572
 42
-0.039361
  0
VERTEX
  8
0
 10
288.146304
 20
199.441938
 42
-0.038260
  0
VERTEX
  8
0
 10
304.486198
 20
195.413893
 42
-0.037342
  0
VERTEX
  8
0
 10
320.160298
 20
188.919082
 42
0.006913
  0
VERTEX
  8
0
 10
322.503334
 20
187.776690
 42
0.011076
  0
VERTEX
  8
0
 10
324.536790
 20
186.874266
 42
0.005048
  0
VERTEX
  8
0
 10
326.259127
 20
186.175477
 42
0.298612
  0
VERTEX
  8
0
 10
326.574366
 20
186.241032
 42
0.401802
  0
VERTEX
  8
0
 10
326.590307
 20
186.990075
 42
0.009930
  0
VERTEX
  8
0
 10
323.997364
 20
189.703495
 42
0.018938
  0
VERTEX
  8
0
 10
321.213431
 20
192.298911
 42
0.046856
  0
VERTEX
  8
0
 10
318.943114
 20
193.915777
 42
0.007262
  0
VERTEX
  8
0
 10
317.687295
 20
194.619356
 42
0.002436
  0
VERTEX
  8
0
 10
315.833638
 20
195.611137
 42
0.002423
  0
VERTEX
  8
0
 10
313.771430
 20
196.688854
 42
0.002769
  0
VERTEX
  8
0
 10
311.788419
 20
197.699104
 42
-0.016313
  0
VERTEX
  8
0
 10
307.943894
 20
199.790729
 42
-0.139333
  0
VERTEX
  8
0
 10
306.602025
 20
201.194031
 42
-0.275565
  0
VERTEX
  8
0
 10
306.674136
 20
202.589149
 42
-0.067984
  0
VERTEX
  8
0
 10
308.259224
 20
204.377620
 42
0.072687
  0
VERTEX
  8
0
 10
310.601492
 20
207.070787
 42
0.022550
  0
VERTEX
  8
0
 10
313.301291
 20
211.725286
 42
0.023154
  0
VERTEX
  8
0
 10
315.703070
 20
216.904415
 42
0.038042
  0
VERTEX
  8
0
 10
317.184679
 20
221.500000
 42
0.016043
  0
VERTEX
  8
0
 10
317.674346
 20
223.869953
 42
0.002502
  0
VERTEX
  8
0
 10
318.467412
 20
228.584375
 42
0.002783
  0
VERTEX
  8
0
 10
319.344103
 20
234.155252
 42
0.002422
  0
VERTEX
  8
0
 10
320.201648
 20
240.000000
 42
0.005449
  0
VERTEX
  8
0
 10
321.399572
 20
249.167107
 42
0.026259
  0
VERTEX
  8
0
 10
321.749182
 20
254.413764
 42
0.027157
  0
VERTEX
  8
0
 10
321.540593
 20
259.590637
 42
0.006095
  0
VERTEX
  8
0
 10
320.599720
 20
268.369899
 42
0.004967
  0
VERTEX
  8
0
 10
319.894006
 20
273.814969
 42
0.006809
  0
VERTEX
  8
0
 10
319.143741
 20
278.698484
 42
0.004589
  0
VERTEX
  8
0
 10
318.423498
 20
282.766438
 42
0.076896
  0
VERTEX
  8
0
 10
317.971016
 20
284.054158
 42
-0.034995
  0
VERTEX
  8
0
 10
317.598993
 20
284.884019
 42
-0.023186
  0
VERTEX
  8
0
 10
317.285236
 20
285.880250
 42
-0.023361
  0
VERTEX
  8
0
 10
317.069702
 20
286.881488
 42
-0.041353
  0
VERTEX
  8
0
 10
317.000000
 20
287.722817
 42
0.064352
  0
VERTEX
  8
0
 10
316.875983
 20
288.682400
 42
0.017959
  0
VERTEX
  8
0
 10
316.437718
 20
290.135300
 42
0.017807
  0
VERTEX
  8
0
 10
315.818537
 20
291.758140
 42
0.017846
  0
VERTEX
  8
0
 10
315.085847
 20
293.331616
 42
0.041348
  0
VERTEX
  8
0
 10
311.224931
 20
299.570960
 42
0.082754
  0
VERTEX
  8
0
 10
307.068979
 20
303.591872
 42
0.102867
  0
VERTEX
  8
0
 10
302.487373
 20
305.522138
 42
0.095078
  0
VERTEX
  8
0
 10
297.379044
 20
305.543286
 42
0.075538
  0
VERTEX
  8
0
 10
294.059792
 20
304.383185
 42
0.098116
  0
VERTEX
  8
0
 10
291.565402
 20
302.355195
 42
0.059385
  0
VERTEX
  8
0
 10
289.233337
 20
298.748135
 42
0.012917
  0
VERTEX
  8
0
 10
286.142844
 20
292.000000
 42
0.087797
  0
VERTEX
  8
0
 10
282.493520
 20
276.307480
 42
0.025185
  0
VERTEX
  8
0
 10
282.418722
 20
251.257249
 42
0.025601
  0
VERTEX
  8
0
 10
284.903417
 20
226.129955
 42
0.077440
  0
VERTEX
  8
0
 10
290.041188
 20
209.771940
 42
-0.011766
  0
VERTEX
  8
0
 10
290.900684
 20
207.924088
 42
-0.018231
  0
VERTEX
  8
0
 10
291.545648
 20
206.287389
 42
-0.012918
  0
VERTEX
  8
0
 10
291.981830
 20
204.940042
 42
-0.274781
  0
VERTEX
  8
0
 10
291.882378
 20
204.549044
 42
-0.215001
  0
VERTEX
  8
0
 10
291.503228
 20
204.405533
 42
-0.016990
  0
VERTEX
  8
0
 10
290.405298
 20
204.510913
 42
-0.020676
  0
VERTEX
  8
0
 10
289.055509
 20
204.744016
 42
-0.014263
  0
VERTEX
  8
0
 10
287.548897
 20
205.114110
 42
0.049870
  0
VERTEX
  8
0
 10
285.156607
 20
205.524133
 42
0.008111
  0
VERTEX
  8
0
 10
280.446107
 20
205.778112
 42
0.008563
  0
VERTEX
  8
0
 10
274.705374
 20
205.895916
 42
0.006334
  0
VERTEX
  8
0
 10
268.354252
 20
205.837006
 42
-0.004439
  0
VERTEX
  8
0
 10
258.557888
 20
205.709014
 42
-0.047342
  0
VERTEX
  8
0
 10
254.595205
 20
206.068327
 42
-0.284848
  0
VERTEX
  8
0
 10
253.510963
 20
207.058410
 42
-0.258449
  0
VERTEX
  8
0
 10
253.860313
 20
208.550000
 42
0.096574
  0
VERTEX
  8
0
 10
254.726685
 20
209.984425
 42
0.008023
  0
VERTEX
  8
0
 10
256.162746
 20
214.112952
 42
0.009658
  0
VERTEX
  8
0
 10
257.808243
 20
219.443971
 42
0.005371
  0
VERTEX
  8
0
 10
259.617945
 20
226.000000
 42
0.054952
  0
VERTEX
  8
0
 10
261.158938
 20
236.279963
 42
0.009882
  0
VERTEX
  8
0
 10
261.531945
 20
255.665822
 42
0.009696
  0
VERTEX
  8
0
 10
261.145938
 20
275.044431
 42
0.058074
  0
VERTEX
  8
0
 10
259.587009
 20
285.000000
 42
0.022424
  0
VERTEX
  8
0
 10
256.587054
 20
294.169618
 42
0.061749
  0
VERTEX
  8
0
 10
253.425247
 20
300.178637
 42
0.092867
  0
VERTEX
  8
0
 10
249.792842
 20
303.756849
 42
0.120495
  0
VERTEX
  8
0
 10
245.421731
 20
305.366541
 42
0.015393
  0
VERTEX
  8
0
 10
243.763826
 20
305.503175
 42
0.013479
  0
VERTEX
  8
0
 10
242.025436
 20
305.545754
 42
0.013673
  0
VERTEX
  8
0
 10
240.452913
 20
305.498862
 42
0.038836
  0
SEQEND
  0
POLYLINE
  8
0
 66
1
 70
1
  0
VERTEX
  8
0
 10
261.000000
 20
185.400504
 42
0.044813
  0
VERTEX
  8
0
 10
252.266141
 20
183.566749
 42
0.043008
  0
VERTEX
  8
0
 10
243.871707
 20
180.189736
 42
0.045206
  0
VERTEX
  8
0
 10
236.631186
 20
175.662447
 42
0.067615
  0
VERTEX
  8
0
 10
231.356368
 20
170.400575
 42
0.135125
  0
VERTEX
  8
0
 10
227.198870
 20
160.080937
 42
0.155294
  0
VERTEX
  8
0
 10
229.237024
 20
149.694510
 42
0.119026
  0
VERTEX
  8
0
 10
237.720587
 20
140.381710
 42
0.063220
  0
VERTEX
  8
0
 10
251.720215
 20
133.292363
 42
0.038884
  0
VERTEX
  8
0
 10
254.727628
 20
132.477010
 42
0.022922
  0
VERTEX
  8
0
 10
258.415435
 20
131.952861
 42
0.016647
  0
VERTEX
  8
0
 10
263.254798
 20
131.652160
 42
0.006374
  0
VERTEX
  8
0
 10
270.000000
 20
131.544116
 42
0.011603
  0
VERTEX
  8
0
 10
279.514352
 20
131.733827
 42
0.036065
  0
VERTEX
  8
0
 10
285.883321
 20
132.471050
 42
0.043339
  0
VERTEX
  8
0
 10
291.425093
 20
134.028438
 42
0.023294
  0
VERTEX
  8
0
 10
297.949730
 20
136.842275
 42
0.040385
  0
VERTEX
  8
0
 10
305.427056
 20
141.268370
 42
0.080357
  0
VERTEX
  8
0
 10
310.327585
 20
146.073448
 42
0.091832
  0
VERTEX
  8
0
 10
313.065826
 20
151.717327
 42
0.067242
  0
VERTEX
  8
0
 10
314.000000
 20
158.632267
 42
0.014530
  0
VERTEX
  8
0
 10
313.887178
 20
162.513785
 42
0.056585
  0
VERTEX
  8
0
 10
313.478568
 20
164.877643
 42
0.066923
  0
VERTEX
  8
0
 10
312.586796
 20
166.886098
 42
0.025820
  0
VERTEX
  8
0
 10
310.853875
 20
169.402139
 42
0.036120
  0
VERTEX
  8
0
 10
307.799013
 20
172.836584
 42
0.022968
  0
VERTEX
  8
0
 10
303.794341
 20
176.389466
 42
0.018509
  0
VERTEX
  8
0
 10
299.854087
 20
179.340026
 42
0.152602
  0
VERTEX
  8
0
 10
297.742041
 20
180.000000
 42
-0.053423
  0
VERTEX
  8
0
 10
297.158675
 20
180.062509
 42
-0.035947
  0
VERTEX
  8
0
 10
296.515162
 20
180.251290
 42
-0.036150
  0
VERTEX
  8
0
 10
295.911564
 20
180.527736
 42
-0.057896
  0
VERTEX
  8
0
 10
295.450000
 20
180.855455
 42
0.133680
  0
VERTEX
  8
0
 10
291.127118
 20
183.036638
 42
0.017586
  0
VERTEX
  8
0
 10
280.897340
 20
184.754150
 42
0.021597
  0
VERTEX
  8
0
 10
269.905003
 20
185.723840
 42
0.040569
  0
SEQEND
  0
POLYLINE
  8
0
 66
1
 70
1
  0
VERTEX
  8
0
 10
152.826112
 20
164.322101
 42
0.031426
  0
VERTEX
  8
0
 10
151.331765
 20
164.049632
 42
0.031182
  0
VERTEX
  8
0
 10
149.879352
 20
163.591535
 42
0.032785
  0
VERTEX
  8
0
 10
148.665223
 20
163.029676
 42
0.095061
  0
VERTEX
  8
0
 10
147.953667
 20
162.444172
 42
-0.032750
  0
VERTEX
  8
0
 10
147.430276
 20
161.891508
 42
-0.034850
  0
VERTEX
  8
0
 10
146.849405
 20
161.424226
 42
-0.037224
  0
VERTEX
  8
0
 10
146.296760
 20
161.097921
 42
-0.115243
  0
VERTEX
  8
0
 10
145.877555
 20
161.000000
 42
0.215114
  0
VERTEX
  8
0
 10
143.964636
 20
160.137077
 42
0.022351
  0
VERTEX
  8
0
 10
140.791300
 20
156.201328
 42
0.020330
  0
VERTEX
  8
0
 10
137.983311
 20
152.036528
 42
0.347549
  0
VERTEX
  8
0
 10
138.162520
 20
150.504146
 42
0.311494
  0
VERTEX
  8
0
 10
138.593963
 20
150.424985
 42
0.012706
  0
VERTEX
  8
0
 10
140.095582
 20
151.146437
 42
0.018284
  0
VERTEX
  8
0
 10
141.911423
 20
152.161809
 42
0.011480
  0
VERTEX
  8
0
 10
143.960443
 20
153.473380
 42
-0.005665
  0
VERTEX
  8
0
 10
146.015608
 20
154.822828
 42
-0.008354
  0
VERTEX
  8
0
 10
147.852365
 20
155.956477
 42
-0.004486
  0
VERTEX
  8
0
 10
149.419645
 20
156.869082
 42
-0.140417
  0
VERTEX
  8
0
 10
149.850489
 20
156.974202
 42
-0.235390
  0
VERTEX
  8
0
 10
150.180519
 20
156.793021
 42
-0.015777
  0
VERTEX
  8
0
 10
150.783627
 20
155.861997
 42
-0.020043
  0
VERTEX
  8
0
 10
151.449088
 20
154.653058
 42
-0.013481
  0
VERTEX
  8
0
 10
152.115051
 20
153.224202
 42
0.003611
  0
VERTEX
  8
0
 10
154.996816
 20
146.708359
 42
0.012931
  0
VERTEX
  8
0
 10
156.974959
 20
142.607952
 42
0.015981
  0
VERTEX
  8
0
 10
158.939457
 20
139.073616
 42
0.007999
  0
VERTEX
  8
0
 10
161.635116
 20
134.728414
 42
0.024834
  0
VERTEX
  8
0
 10
163.992595
 20
131.432634
 42
0.008779
  0
VERTEX
  8
0
 10
167.679921
 20
126.947980
 42
0.008689
  0
VERTEX
  8
0
 10
171.909976
 20
122.154827
 42
0.010101
  0
VERTEX
  8
0
 10
176.101199
 20
117.750868
 42
-0.016237
  0
VERTEX
  8
0
 10
182.082218
 20
111.309824
 42
-0.024216
  0
VERTEX
  8
0
 10
186.839940
 20
105.273447
 42
-0.025537
  0
VERTEX
  8
0
 10
190.135900
 20
100.108640
 42
-0.129960
  0
VERTEX
  8
0
 10
191.000000
 20
96.840306
 42
0.137116
  0
VERTEX
  8
0
 10
191.150658
 20
96.301256
 42
0.002427
  0
VERTEX
  8
0
 10
192.740776
 20
93.707247
 42
0.005895
  0
VERTEX
  8
0
 10
194.654936
 20
90.698192
 42
0.003873
  0
VERTEX
  8
0
 10
196.926045
 20
87.277459
 42
0.027205
  0
VERTEX
  8
0
 10
202.374827
 20
80.083770
 42
0.017314
  0
VERTEX
  8
0
 10
209.437486
 20
72.306272
 42
0.017383
  0
VERTEX
  8
0
 10
216.774139
 20
65.275056
 42
0.037034
  0
VERTEX
  8
0
 10
223.000000
 20
60.489405
 42
0.057239
  0
VERTEX
  8
0
 10
240.357020
 20
51.738991
 42
0.067786
  0
VERTEX
  8
0
 10
258.283447
 20
47.782260
 42
0.068239
  0
VERTEX
  8
0
 10
276.516545
 20
48.774992
 42
0.059123
  0
VERTEX
  8
0
 10
294.777335
 20
54.599624
 42
-0.003222
  0
VERTEX
  8
0
 10
296.834699
 20
55.519455
 42
-0.004806
  0
VERTEX
  8
0
 10
298.646621
 20
56.294890
 42
-0.002161
  0
VERTEX
  8
0
 10
300.198038
 20
56.933413
 42
-0.096832
  0
VERTEX
  8
0
 10
300.538645
 20
57.000000
 42
0.160563
  0
VERTEX
  8
0
 10
302.664713
 20
57.700803
 42
0.006391
  0
VERTEX
  8
0
 10
309.252028
 20
62.704344
 42
0.012173
  0
VERTEX
  8
0
 10
316.003034
 20
68.239140
 42
0.018176
  0
VERTEX
  8
0
 10
321.600009
 20
73.426351
 42
0.012561
  0
VERTEX
  8
0
 10
327.407662
 20
79.513472
 42
0.017958
  0
VERTEX
  8
0
 10
332.220709
 20
85.217583
 42
0.017563
  0
VERTEX
  8
0
 10
336.689923
 20
91.349264
 42
0.011287
  0
VERTEX
  8
0
 10
341.456016
 20
98.750000
 42
-0.010098
  0
VERTEX
  8
0
 10
342.990357
 20
101.144997
 42
-0.015169
  0
VERTEX
  8
0
 10
344.432702
 20
103.164062
 42
-0.009976
  0
VERTEX
  8
0
 10
345.695441
 20
104.755996
 42
-0.223687
  0
VERTEX
  8
0
 10
346.213565
 20
105.000000
 42
0.093820
  0
VERTEX
  8
0
 10
346.662631
 20
105.085011
 42
0.032233
  0
VERTEX
  8
0
 10
347.264149
 20
105.367188
 42
0.030702
  0
VERTEX
  8
0
 10
347.902894
 20
105.771626
 42
0.031010
  0
VERTEX
  8
0
 10
348.485059
 20
106.250000
 42
-0.014536
  0
VERTEX
  8
0
 10
349.217331
 20
106.893255
 42
-0.003948
  0
VERTEX
  8
0
 10
350.412373
 20
107.867188
 42
-0.003991
  0
VERTEX
  8
0
 10
351.786441
 20
108.951173
 42
-0.004138
  0
VERTEX
  8
0
 10
353.161333
 20
110.000000
 42
0.029507
  0
VERTEX
  8
0
 10
359.823682
 20
115.638915
 42
0.015372
  0
VERTEX
  8
0
 10
367.470232
 20
123.389105
 42
0.015119
  0
VERTEX
  8
0
 10
374.417761
 20
131.347426
 42
0.041361
  0
VERTEX
  8
0
 10
378.659601
 20
137.484562
 42
0.017404
  0
VERTEX
  8
0
 10
382.576350
 20
144.875693
 42
0.031706
  0
VERTEX
  8
0
 10
385.166829
 20
151.193787
 42
0.040578
  0
VERTEX
  8
0
 10
386.305877
 20
155.757285
 42
0.463913
  0
VERTEX
  8
0
 10
385.250000
 20
156.997624
 42
0.240769
  0
VERTEX
  8
0
 10
384.843190
 20
156.788046
 42
0.009879
  0
VERTEX
  8
0
 10
383.881745
 20
155.391060
 42
0.015322
  0
VERTEX
  8
0
 10
382.793608
 20
153.625714
 42
0.010062
  0
VERTEX
  8
0
 10
381.645303
 20
151.531805
 42
-0.042701
  0
VERTEX
  8
0
 10
373.305566
 20
138.429781
 42
-0.035902
  0
VERTEX
  8
0
 10
362.402165
 20
126.097118
 42
-0.034680
  0
VERTEX
  8
0
 10
349.421436
 20
115.035896
 42
-0.033438
  0
VERTEX
  8
0
 10
334.882913
 20
105.726517
 42
-0.017659
  0
VERTEX
  8
0
 10
329.247575
 20
102.882518
 42
-0.011275
  0
VERTEX
  8
0
 10
322.515056
 20
99.960225
 42
-0.007953
  0
VERTEX
  8
0
 10
316.138089
 20
97.479032
 42
-0.089024
  0
VERTEX
  8
0
 10
313.468937
 20
97.000000
 42
0.037058
  0
VERTEX
  8
0
 10
312.607125
 20
96.936039
 42
0.032940
  0
VERTEX
  8
0
 10
311.728688
 20
96.745112
 42
0.034444
  0
VERTEX
  8
0
 10
310.960022
 20
96.465628
 42
0.080815
  0
VERTEX
  8
0
 10
310.450000
 20
96.132298
 42
-0.144321
  0
VERTEX
  8
0
 10
306.457428
 20
94.186446
 42
-0.008178
  0
VERTEX
  8
0
 10
292.737701
 20
92.106277
 42
-0.013505
  0
VERTEX
  8
0
 10
277.988102
 20
90.520405
 42
-0.020027
  0
VERTEX
  8
0
 10
265.001050
 20
90.000000
 42
-0.023891
  0
VERTEX
  8
0
 10
253.979580
 20
90.526922
 42
-0.013728
  0
VERTEX
  8
0
 10
240.777809
 20
92.158959
 42
-0.008457
  0
VERTEX
  8
0
 10
228.290792
 20
94.268590
 42
-0.139870
  0
VERTEX
  8
0
 10
224.550000
 20
96.132298
 42
0.074873
  0
VERTEX
  8
0
 10
224.053361
 20
96.465320
 42
0.035434
  0
VERTEX
  8
0
 10
223.332808
 20
96.745112
 42
0.034110
  0
VERTEX
  8
0
 10
222.522093
 20
96.936090
 42
0.040811
  0
VERTEX
  8
0
 10
221.740410
 20
97.000000
 42
-0.111833
  0
VERTEX
  8
0
 10
218.073528
 20
97.830540
 42
-0.005250
  0
VERTEX
  8
0
 10
206.611484
 20
103.452122
 42
-0.005969
  0
VERTEX
  8
0
 10
195.393602
 20
109.269733
 42
-0.091644
  0
VERTEX
  8
0
 10
192.000000
 20
111.975679
 42
0.043528
  0
VERTEX
  8
0
 10
191.627351
 20
112.336239
 42
0.002258
  0
VERTEX
  8
0
 10
190.325000
 20
113.383798
 42
0.003567
  0
VERTEX
  8
0
 10
188.760210
 20
114.612707
 42
0.002582
  0
VERTEX
  8
0
 10
187.000000
 20
115.960425
 42
-0.031581
  0
VERTEX
  8
0
 10
180.313615
 20
121.724156
 42
-0.011564
  0
VERTEX
  8
0
 10
171.592153
 20
130.662766
 42
-0.005435
  0
VERTEX
  8
0
 10
163.054898
 20
140.029405
 42
-0.184098
  0
VERTEX
  8
0
 10
162.000000
 20
142.797351
 42
0.102917
  0
VERTEX
  8
0
 10
161.907458
 20
143.242186
 42
0.040502
  0
VERTEX
  8
0
 10
161.610807
 20
143.796770
 42
0.037913
  0
VERTEX
  8
0
 10
161.182051
 20
144.363201
 42
0.038608
  0
VERTEX
  8
0
 10
160.675088
 20
144.854690
 42
-0.070313
  0
VERTEX
  8
0
 10
159.998987
 20
145.598608
 42
-0.010608
  0
VERTEX
  8
0
 10
158.899420
 20
147.291398
 42
-0.011723
  0
VERTEX
  8
0
 10
157.682664
 20
149.361390
 42
-0.009891
  0
VERTEX
  8
0
 10
156.490775
 20
151.605777
 42
-0.006315
  0
VERTEX
  8
0
 10
154.742400
 20
155.172507
 42
-0.074369
  0
VERTEX
  8
0
 10
154.294873
 20
156.647008
 42
-0.189250
  0
VERTEX
  8
0
 10
154.522457
 20
157.628424
 42
-0.084572
  0
VERTEX
  8
0
 10
155.461462
 20
158.595478
 42
-0.076102
  0
VERTEX
  8
0
 10
156.537833
 20
159.155111
 42
-0.018218
  0
VERTEX
  8
0
 10
158.473640
 20
159.735137
 42
-0.018303
  0
VERTEX
  8
0
 10
160.770345
 20
160.244106
 42
-0.017208
  0
VERTEX
  8
0
 10
163.145775
 20
160.596002
 42
0.019370
  0
VERTEX
  8
0
 10
168.425930
 20
161.401549
 42
0.497502
  0
VERTEX
  8
0
 10
168.978295
 20
162.523831
 42
0.245882
  0
VERTEX
  8
0
 10
167.425423
 20
163.638725
 42
0.013442
  0
VERTEX
  8
0
 10
161.262179
 20
164.341871
 42
0.013028
  0
VERTEX
  8
0
 10
159.170549
 20
164.468906
 42
0.009238
  0
VERTEX
  8
0
 10
156.819685
 20
164.506833
 42
0.009333
  0
VERTEX
  8
0
 10
154.571927
 20
164.459602
 42
0.019464
  0
SEQEND
  0
POLYLINE
  8
0
 66
1
 70
1
  0
VERTEX
  8
0
 10
377.250000
 20
163.337719
 42
0.121000
  0
VERTEX
  8
0
 10
376.212659
 20
162.590307
 42
0.386515
  0
VERTEX
  8
0
 10
376.237703
 20
161.809072
 42
0.132183
  0
VERTEX
  8
0
 10
377.480414
 20
161.067104
 42
0.027017
  0
VERTEX
  8
0
 10
380.000000
 20
160.500000
 42
-0.020833
  0
VERTEX
  8
0
 10
381.532678
 20
160.174879
 42
-0.031813
  0
VERTEX
  8
0
 10
382.825000
 20
159.754789
 42
-0.032949
  0
VERTEX
  8
0
 10
383.768851
 20
159.306089
 42
-0.271692
  0
VERTEX
  8
0
 10
384.000000
 20
158.912102
 42
0.318990
  0
VERTEX
  8
0
 10
384.252276
 20
158.556910
 42
0.033037
  0
VERTEX
  8
0
 10
385.298070
 20
158.267930
 42
0.031460
  0
VERTEX
  8
0
 10
386.725164
 20
158.065878
 42
0.019439
  0
VERTEX
  8
0
 10
388.418960
 20
158.000000
 42
-0.057041
  0
VERTEX
  8
0
 10
391.680758
 20
157.626675
 42
-0.038576
  0
VERTEX
  8
0
 10
395.254495
 20
156.501460
 42
-0.035271
  0
VERTEX
  8
0
 10
398.234021
 20
155.052406
 42
-0.265806
  0
VERTEX
  8
0
 10
398.993677
 20
153.750000
 42
0.181377
  0
VERTEX
  8
0
 10
399.103835
 20
153.463684
 42
0.090143
  0
VERTEX
  8
0
 10
399.414289
 20
153.220313
 42
0.070490
  0
VERTEX
  8
0
 10
399.874137
 20
153.055412
 42
0.050936
  0
VERTEX
  8
0
 10
400.416667
 20
153.000000
 42
-0.080841
  0
VERTEX
  8
0
 10
400.991590
 20
152.906434
 42
-0.067172
  0
VERTEX
  8
0
 10
401.548326
 20
152.632812
 42
-0.068411
  0
VERTEX
  8
0
 10
402.003112
 20
152.227815
 42
-0.091153
  0
VERTEX
  8
0
 10
402.279762
 20
151.750000
 42
0.069218
  0
VERTEX
  8
0
 10
402.503723
 20
151.321110
 42
0.121635
  0
VERTEX
  8
0
 10
402.805614
 20
151.062013
 42
0.159505
  0
VERTEX
  8
0
 10
403.134690
 20
151.011997
 42
0.146303
  0
VERTEX
  8
0
 10
403.442998
 20
151.163236
 42
0.352405
  0
VERTEX
  8
0
 10
403.703361
 20
152.926925
 42
0.053129
  0
VERTEX
  8
0
 10
401.422142
 20
156.008664
 42
0.044953
  0
VERTEX
  8
0
 10
397.710314
 20
159.381383
 42
0.038166
  0
VERTEX
  8
0
 10
393.253624
 20
162.246962
 42
0.082219
  0
VERTEX
  8
0
 10
390.179274
 20
163.303659
 42
0.024741
  0
VERTEX
  8
0
 10
385.252244
 20
163.885381
 42
0.024462
  0
VERTEX
  8
0
 10
380.313257
 20
163.979914
 42
0.088669
  0
SEQEND
  0
ENDSEC
  0
EOF
